<mxfile host="app.diagrams.net" modified="2020-12-22T00:43:13.504Z" agent="5.0 (Windows NT 6.1; Win64; x64) AppleWebKit/537.36 (KHTML, like Gecko) Chrome/87.0.4280.88 Safari/537.36" etag="fTVU7b8UvHqiqYojb_WY" version="14.0.4" type="github">
  <diagram id="C5RBs43oDa-KdzZeNtuy" name="Page-1">
    <mxGraphModel dx="1190" dy="560" grid="1" gridSize="10" guides="1" tooltips="1" connect="1" arrows="1" fold="1" page="1" pageScale="1" pageWidth="827" pageHeight="1169" math="0" shadow="0">
      <root>
        <mxCell id="WIyWlLk6GJQsqaUBKTNV-0" />
        <mxCell id="WIyWlLk6GJQsqaUBKTNV-1" parent="WIyWlLk6GJQsqaUBKTNV-0" />
        <mxCell id="WIyWlLk6GJQsqaUBKTNV-2" value="" style="rounded=0;html=1;jettySize=auto;orthogonalLoop=1;fontSize=11;endArrow=block;endFill=0;endSize=8;strokeWidth=1;shadow=0;labelBackgroundColor=none;" parent="WIyWlLk6GJQsqaUBKTNV-1" source="WIyWlLk6GJQsqaUBKTNV-3" edge="1">
          <mxGeometry relative="1" as="geometry">
            <mxPoint x="440" y="120" as="targetPoint" />
          </mxGeometry>
        </mxCell>
        <mxCell id="WIyWlLk6GJQsqaUBKTNV-3" value="&lt;div&gt;unsigned int liczba_dni( unsigned char rok, unsigned char miesiac, unsigned char dzien );&lt;/div&gt;" style="ellipse;whiteSpace=wrap;html=1;" parent="WIyWlLk6GJQsqaUBKTNV-1" vertex="1">
          <mxGeometry x="290" y="30" width="300" height="40" as="geometry" />
        </mxCell>
        <mxCell id="90hCP4O0tQ2eVuBAIaek-1" value="unsigned int miesiace[] {31,28,31,30,31,30,31,31,30,31,30,31};" style="rounded=0;whiteSpace=wrap;html=1;" vertex="1" parent="WIyWlLk6GJQsqaUBKTNV-1">
          <mxGeometry x="332.5" y="120" width="215" height="30" as="geometry" />
        </mxCell>
        <mxCell id="90hCP4O0tQ2eVuBAIaek-2" value="" style="rounded=0;html=1;jettySize=auto;orthogonalLoop=1;fontSize=11;endArrow=block;endFill=0;endSize=8;strokeWidth=1;shadow=0;labelBackgroundColor=none;" edge="1" parent="WIyWlLk6GJQsqaUBKTNV-1">
          <mxGeometry relative="1" as="geometry">
            <mxPoint x="439.29" y="150" as="sourcePoint" />
            <mxPoint x="439.29" y="200" as="targetPoint" />
          </mxGeometry>
        </mxCell>
        <mxCell id="90hCP4O0tQ2eVuBAIaek-3" value="unsigned&amp;nbsp; int liczba_dni&amp;nbsp; = 0;" style="rounded=0;whiteSpace=wrap;html=1;" vertex="1" parent="WIyWlLk6GJQsqaUBKTNV-1">
          <mxGeometry x="337.5" y="200" width="205" height="30" as="geometry" />
        </mxCell>
        <mxCell id="90hCP4O0tQ2eVuBAIaek-4" value="i&amp;nbsp; = 0" style="shape=parallelogram;perimeter=parallelogramPerimeter;whiteSpace=wrap;html=1;fixedSize=1;" vertex="1" parent="WIyWlLk6GJQsqaUBKTNV-1">
          <mxGeometry x="332.5" y="280" width="205" height="30" as="geometry" />
        </mxCell>
        <mxCell id="90hCP4O0tQ2eVuBAIaek-5" value="" style="rounded=0;html=1;jettySize=auto;orthogonalLoop=1;fontSize=11;endArrow=block;endFill=0;endSize=8;strokeWidth=1;shadow=0;labelBackgroundColor=none;" edge="1" parent="WIyWlLk6GJQsqaUBKTNV-1">
          <mxGeometry relative="1" as="geometry">
            <mxPoint x="439.28999999999996" y="230" as="sourcePoint" />
            <mxPoint x="439.28999999999996" y="280" as="targetPoint" />
          </mxGeometry>
        </mxCell>
        <mxCell id="90hCP4O0tQ2eVuBAIaek-6" value="" style="rounded=0;html=1;jettySize=auto;orthogonalLoop=1;fontSize=11;endArrow=block;endFill=0;endSize=8;strokeWidth=1;shadow=0;labelBackgroundColor=none;" edge="1" parent="WIyWlLk6GJQsqaUBKTNV-1">
          <mxGeometry relative="1" as="geometry">
            <mxPoint x="439.28999999999996" y="310" as="sourcePoint" />
            <mxPoint x="439.28999999999996" y="360" as="targetPoint" />
          </mxGeometry>
        </mxCell>
        <mxCell id="90hCP4O0tQ2eVuBAIaek-7" value="i &amp;lt; miesiac - 1" style="rhombus;whiteSpace=wrap;html=1;" vertex="1" parent="WIyWlLk6GJQsqaUBKTNV-1">
          <mxGeometry x="390" y="360" width="100" height="80" as="geometry" />
        </mxCell>
        <mxCell id="90hCP4O0tQ2eVuBAIaek-29" value="" style="edgeStyle=orthogonalEdgeStyle;curved=1;rounded=0;orthogonalLoop=1;jettySize=auto;html=1;" edge="1" parent="WIyWlLk6GJQsqaUBKTNV-1" source="90hCP4O0tQ2eVuBAIaek-9" target="90hCP4O0tQ2eVuBAIaek-14">
          <mxGeometry relative="1" as="geometry" />
        </mxCell>
        <mxCell id="90hCP4O0tQ2eVuBAIaek-9" value="&lt;div&gt;liczba_dni += miesiace[ i ];&lt;/div&gt;" style="shape=parallelogram;perimeter=parallelogramPerimeter;whiteSpace=wrap;html=1;fixedSize=1;" vertex="1" parent="WIyWlLk6GJQsqaUBKTNV-1">
          <mxGeometry x="337.5" y="490" width="205" height="30" as="geometry" />
        </mxCell>
        <mxCell id="90hCP4O0tQ2eVuBAIaek-10" value="" style="rounded=0;html=1;jettySize=auto;orthogonalLoop=1;fontSize=11;endArrow=block;endFill=0;endSize=8;strokeWidth=1;shadow=0;labelBackgroundColor=none;" edge="1" parent="WIyWlLk6GJQsqaUBKTNV-1">
          <mxGeometry relative="1" as="geometry">
            <mxPoint x="439.16999999999996" y="440" as="sourcePoint" />
            <mxPoint x="439.16999999999996" y="489.9999999999999" as="targetPoint" />
          </mxGeometry>
        </mxCell>
        <mxCell id="90hCP4O0tQ2eVuBAIaek-11" value="Yes" style="text;html=1;strokeColor=none;fillColor=none;align=center;verticalAlign=middle;whiteSpace=wrap;rounded=0;" vertex="1" parent="WIyWlLk6GJQsqaUBKTNV-1">
          <mxGeometry x="440" y="450" width="40" height="20" as="geometry" />
        </mxCell>
        <mxCell id="90hCP4O0tQ2eVuBAIaek-14" value="&lt;div&gt;i++&lt;/div&gt;" style="shape=parallelogram;perimeter=parallelogramPerimeter;whiteSpace=wrap;html=1;fixedSize=1;" vertex="1" parent="WIyWlLk6GJQsqaUBKTNV-1">
          <mxGeometry x="337.5" y="570" width="205" height="30" as="geometry" />
        </mxCell>
        <mxCell id="90hCP4O0tQ2eVuBAIaek-15" value="" style="rounded=0;html=1;jettySize=auto;orthogonalLoop=1;fontSize=11;endArrow=block;endFill=0;endSize=8;strokeWidth=1;shadow=0;labelBackgroundColor=none;" edge="1" parent="WIyWlLk6GJQsqaUBKTNV-1">
          <mxGeometry relative="1" as="geometry">
            <mxPoint x="438.33" y="520" as="sourcePoint" />
            <mxPoint x="438.33" y="569.9999999999999" as="targetPoint" />
          </mxGeometry>
        </mxCell>
        <mxCell id="90hCP4O0tQ2eVuBAIaek-17" value="" style="rounded=0;html=1;jettySize=auto;orthogonalLoop=1;fontSize=11;endArrow=block;endFill=0;endSize=8;strokeWidth=1;shadow=0;labelBackgroundColor=none;entryX=0;entryY=0.5;entryDx=0;entryDy=0;edgeStyle=orthogonalEdgeStyle;curved=1;" edge="1" parent="WIyWlLk6GJQsqaUBKTNV-1" target="90hCP4O0tQ2eVuBAIaek-7">
          <mxGeometry relative="1" as="geometry">
            <mxPoint x="439.99999999999994" y="599.9999999999999" as="sourcePoint" />
            <mxPoint x="439.99999999999994" y="650" as="targetPoint" />
            <Array as="points">
              <mxPoint x="440" y="640" />
              <mxPoint x="260" y="640" />
              <mxPoint x="260" y="400" />
            </Array>
          </mxGeometry>
        </mxCell>
        <mxCell id="90hCP4O0tQ2eVuBAIaek-18" value="" style="rounded=0;html=1;jettySize=auto;orthogonalLoop=1;fontSize=11;endArrow=block;endFill=0;endSize=8;strokeWidth=1;shadow=0;labelBackgroundColor=none;edgeStyle=orthogonalEdgeStyle;curved=1;entryX=0.5;entryY=0;entryDx=0;entryDy=0;" edge="1" parent="WIyWlLk6GJQsqaUBKTNV-1" target="90hCP4O0tQ2eVuBAIaek-20">
          <mxGeometry relative="1" as="geometry">
            <mxPoint x="488.3299999999999" y="399.9999999999999" as="sourcePoint" />
            <mxPoint x="430" y="722.6666259765625" as="targetPoint" />
            <Array as="points">
              <mxPoint x="590" y="400" />
              <mxPoint x="590" y="680" />
              <mxPoint x="430" y="680" />
            </Array>
          </mxGeometry>
        </mxCell>
        <mxCell id="90hCP4O0tQ2eVuBAIaek-19" value="No" style="text;html=1;strokeColor=none;fillColor=none;align=center;verticalAlign=middle;whiteSpace=wrap;rounded=0;" vertex="1" parent="WIyWlLk6GJQsqaUBKTNV-1">
          <mxGeometry x="542.5" y="400" width="40" height="20" as="geometry" />
        </mxCell>
        <mxCell id="90hCP4O0tQ2eVuBAIaek-20" value="&lt;font style=&quot;font-size: 11px&quot;&gt;miesiac &amp;gt; 2 &amp;amp;&amp;amp; czy_przestepny(rok)&lt;/font&gt;" style="rhombus;whiteSpace=wrap;html=1;" vertex="1" parent="WIyWlLk6GJQsqaUBKTNV-1">
          <mxGeometry x="360" y="720" width="140" height="80" as="geometry" />
        </mxCell>
        <mxCell id="90hCP4O0tQ2eVuBAIaek-21" value="&lt;div&gt;liczba_dni++&lt;/div&gt;" style="shape=parallelogram;perimeter=parallelogramPerimeter;whiteSpace=wrap;html=1;fixedSize=1;" vertex="1" parent="WIyWlLk6GJQsqaUBKTNV-1">
          <mxGeometry x="327.5" y="850" width="205" height="30" as="geometry" />
        </mxCell>
        <mxCell id="90hCP4O0tQ2eVuBAIaek-22" value="" style="rounded=0;html=1;jettySize=auto;orthogonalLoop=1;fontSize=11;endArrow=block;endFill=0;endSize=8;strokeWidth=1;shadow=0;labelBackgroundColor=none;" edge="1" parent="WIyWlLk6GJQsqaUBKTNV-1">
          <mxGeometry relative="1" as="geometry">
            <mxPoint x="429.2899999999999" y="800.0000000000001" as="sourcePoint" />
            <mxPoint x="429.2899999999999" y="849.9999999999999" as="targetPoint" />
          </mxGeometry>
        </mxCell>
        <mxCell id="90hCP4O0tQ2eVuBAIaek-23" value="" style="rounded=0;html=1;jettySize=auto;orthogonalLoop=1;fontSize=11;endArrow=block;endFill=0;endSize=8;strokeWidth=1;shadow=0;labelBackgroundColor=none;entryX=0.5;entryY=0;entryDx=0;entryDy=0;" edge="1" parent="WIyWlLk6GJQsqaUBKTNV-1" target="90hCP4O0tQ2eVuBAIaek-24">
          <mxGeometry relative="1" as="geometry">
            <mxPoint x="429.28999999999996" y="880" as="sourcePoint" />
            <mxPoint x="429.28999999999996" y="930" as="targetPoint" />
          </mxGeometry>
        </mxCell>
        <mxCell id="90hCP4O0tQ2eVuBAIaek-24" value="&lt;div&gt;liczba_dni += dzien&lt;/div&gt;" style="shape=parallelogram;perimeter=parallelogramPerimeter;whiteSpace=wrap;html=1;fixedSize=1;" vertex="1" parent="WIyWlLk6GJQsqaUBKTNV-1">
          <mxGeometry x="327.5" y="970" width="205" height="30" as="geometry" />
        </mxCell>
        <mxCell id="90hCP4O0tQ2eVuBAIaek-25" value="Yes" style="text;html=1;strokeColor=none;fillColor=none;align=center;verticalAlign=middle;whiteSpace=wrap;rounded=0;" vertex="1" parent="WIyWlLk6GJQsqaUBKTNV-1">
          <mxGeometry x="390" y="810" width="40" height="20" as="geometry" />
        </mxCell>
        <mxCell id="90hCP4O0tQ2eVuBAIaek-26" value="" style="rounded=0;html=1;jettySize=auto;orthogonalLoop=1;fontSize=11;endArrow=block;endFill=0;endSize=8;strokeWidth=1;shadow=0;labelBackgroundColor=none;edgeStyle=orthogonalEdgeStyle;curved=1;" edge="1" parent="WIyWlLk6GJQsqaUBKTNV-1">
          <mxGeometry relative="1" as="geometry">
            <mxPoint x="499.99999999999994" y="760" as="sourcePoint" />
            <mxPoint x="450" y="969" as="targetPoint" />
            <Array as="points">
              <mxPoint x="590" y="760" />
              <mxPoint x="590" y="920" />
              <mxPoint x="450" y="920" />
            </Array>
          </mxGeometry>
        </mxCell>
        <mxCell id="90hCP4O0tQ2eVuBAIaek-28" value="No" style="text;html=1;strokeColor=none;fillColor=none;align=center;verticalAlign=middle;whiteSpace=wrap;rounded=0;" vertex="1" parent="WIyWlLk6GJQsqaUBKTNV-1">
          <mxGeometry x="537.5" y="740" width="40" height="20" as="geometry" />
        </mxCell>
        <mxCell id="90hCP4O0tQ2eVuBAIaek-30" value="" style="edgeStyle=orthogonalEdgeStyle;curved=1;rounded=0;orthogonalLoop=1;jettySize=auto;html=1;" edge="1" parent="WIyWlLk6GJQsqaUBKTNV-1">
          <mxGeometry relative="1" as="geometry">
            <mxPoint x="430" y="1000.0000000000001" as="sourcePoint" />
            <mxPoint x="430" y="1050" as="targetPoint" />
          </mxGeometry>
        </mxCell>
        <mxCell id="90hCP4O0tQ2eVuBAIaek-31" value="&lt;div&gt;return liczba_dni;&lt;/div&gt;" style="shape=parallelogram;perimeter=parallelogramPerimeter;whiteSpace=wrap;html=1;fixedSize=1;" vertex="1" parent="WIyWlLk6GJQsqaUBKTNV-1">
          <mxGeometry x="327.5" y="1050" width="205" height="30" as="geometry" />
        </mxCell>
      </root>
    </mxGraphModel>
  </diagram>
</mxfile>
